<?xml version="1.0" encoding="utf-8"?>
<!-- Generator: Adobe Illustrator 18.0.0, SVG Export Plug-In . SVG Version: 6.00 Build 0)  -->
<!DOCTYPE svg PUBLIC "-//W3C//DTD SVG 1.1//EN" "http://www.w3.org/Graphics/SVG/1.1/DTD/svg11.dtd">
<svg version="1.1" id="Layer_1" xmlns="http://www.w3.org/2000/svg" xmlns:xlink="http://www.w3.org/1999/xlink" x="0px" y="0px"
	 viewBox="394.7 267.6 446.9 595.3" enable-background="new 394.7 267.6 446.9 595.3" xml:space="preserve">
<path d="M791,349.9c-43.7-54.6-102.2-82.3-172.6-82.3c-70.4,0-132,30.8-175.6,85.3c-43.7,55.6-57.5,119.1-41.7,187.5
	c15.9,67.5,58.5,121,120,150.8l97.2,171.6l100.2-173.6c61.5-30.8,103.2-85.3,118.1-152.8C850.5,468,835.6,404.5,791,349.9z"/>
<g>
	<g>
		<g>
			<path fill="#66BB6A" d="M618.3,488.8L431.8,597c-59.5-103.2-23.8-235.1,79.4-294.7c34.7-19.8,68.5-28.8,108.1-28.8L618.3,488.8
				L618.3,488.8z"/>
		</g>
	</g>
	<g>
		<g>
			<path fill="#BDDDF4" d="M618.3,488.8L805.9,597c-59.5,103.2-191.5,138.9-294.7,79.4c-34.7-19.8-59.5-44.6-79.4-79.4L618.3,488.8z
				"/>
		</g>
	</g>
	<g>
		<g>
			<path fill="#488FCC" d="M618.3,488.8V273.6c119.1,0,216.3,96.2,216.3,216.3c0,39.7-8.9,73.4-28.8,108.1L618.3,488.8z"/>
		</g>
	</g>
</g>
<g>
	<path d="M736.4,489.8L719.5,467c-5-6-13.9-8.9-20.8-6.9L662,472c-6.9,2-9.9,9.9-6,15.9l22.8,38.7h50.6l8.9-14.9
		C741.4,505.7,740.4,495.8,736.4,489.8z M637.2,540.4l-7.9,37.7c-2,6.9,3,13.9,10.9,14.9l34.7,4c7.9,1,16.9-4,19.8-9.9l34.7-59.5
		h-75.4C646.1,527.5,638.2,533.5,637.2,540.4z"/>
	<path d="M556.8,393.6l-10.9,25.8c-3,6.9-1,16.9,5,21.8l28.8,25.8c6,5,12.9,4,16.9-3l22.8-38.7l-25.8-43.7h-16.9
		C568.7,381.7,559.8,387.6,556.8,393.6z M694.7,426.3l-13.9-31.7c-3-6.9-11.9-12.9-18.9-12.9h-68.5l37.7,65.5
		c4,6.9,12.9,9.9,19.8,7.9l36.7-11.9C694.7,440.2,697.7,433.3,694.7,426.3z"/>
	<path d="M606.4,527.5h-44.6L536,571.2l8.9,14.9c4,6.9,12.9,10.9,19.8,9.9l27.8-3c6.9-1,14.9-7.9,15.9-14.9l7.9-37.7
		C618.3,533.5,613.4,527.5,606.4,527.5z M570.7,485.9L542,460.1c-6-5-13.9-4-17.9,2l-20.8,27.8c-4,6-5,15.9-1,22.8l33.7,59.5
		l37.7-65.5C577.7,499.8,575.7,490.8,570.7,485.9z"/>
</g>
</svg>
