<?xml version="1.0" encoding="utf-8"?>
<!-- Generator: Adobe Illustrator 18.0.0, SVG Export Plug-In . SVG Version: 6.00 Build 0)  -->
<!DOCTYPE svg PUBLIC "-//W3C//DTD SVG 1.1//EN" "http://www.w3.org/Graphics/SVG/1.1/DTD/svg11.dtd">
<svg version="1.1" id="Layer_1" xmlns="http://www.w3.org/2000/svg" xmlns:xlink="http://www.w3.org/1999/xlink" x="0px" y="0px"
	 viewBox="0 0 841.9 595.3" enable-background="new 0 0 841.9 595.3" xml:space="preserve">
<path d="M606.5,82.3C562.8,27.7,504.3,0.1,433.9,0.1s-132,30.8-175.6,85.3c-43.7,55.6-57.5,119.1-41.7,187.5
	c15.9,67.5,58.5,121,120,150.8l97.2,171.6L534,421.6c61.5-30.8,103.2-85.3,118.1-152.8C666,200.4,651.1,136.9,606.5,82.3z"/>
<g>
	<g>
		<path fill="#757576" d="M433.8,221.2L247.3,329.4c-59.5-103.2-23.8-235.1,79.4-294.7c34.7-19.8,68.5-28.8,108.1-28.8L433.8,221.2
			L433.8,221.2z"/>
	</g>
</g>
<g>
	<g>
		<path fill="#66BB6A" d="M433.8,221.2l187.6,108.2c-59.5,103.2-191.5,138.9-294.7,79.4c-34.7-19.8-59.5-44.6-79.4-79.4L433.8,221.2
			z"/>
	</g>
</g>
<g>
	<g>
		<path fill="#BDDDF4" d="M433.8,221.2V6c119.1,0,216.3,96.2,216.3,216.3c0,39.7-8.9,73.4-28.8,108.1L433.8,221.2z"/>
	</g>
</g>
<g>
	<path d="M551.9,222.2L535,199.4c-5-6-13.9-8.9-20.8-6.9l-36.7,11.9c-6.9,2-9.9,9.9-6,15.9l22.8,38.7h50.6l8.9-14.9
		C556.9,238.1,555.9,228.2,551.9,222.2z M452.7,272.8l-7.9,37.7c-2,6.9,3,13.9,10.9,14.9l34.7,4c7.9,1,16.9-4,19.8-9.9l34.7-59.5
		h-75.4C461.6,259.9,453.7,265.9,452.7,272.8z"/>
	<path d="M372.3,126l-10.9,25.8c-3,6.9-1,16.9,5,21.8l28.8,25.8c6,5,12.9,4,16.9-3l22.8-38.7L409.1,114h-16.9
		C384.2,114.1,375.3,120,372.3,126z M510.2,158.7L496.3,127c-3-6.9-11.9-12.9-18.9-12.9h-68.5l37.7,65.5c4,6.9,12.9,9.9,19.8,7.9
		l36.7-11.9C510.2,172.6,513.2,165.7,510.2,158.7z"/>
	<path d="M421.9,259.9h-44.6l-25.8,43.7l8.9,14.9c4,6.9,12.9,10.9,19.8,9.9l27.8-3c6.9-1,14.9-7.9,15.9-14.9l7.9-37.7
		C433.8,265.9,428.9,259.9,421.9,259.9z M386.2,218.3l-28.7-25.8c-6-5-13.9-4-17.9,2l-20.8,27.8c-4,6-5,15.9-1,22.8l33.7,59.5
		l37.7-65.5C393.2,232.2,391.2,223.2,386.2,218.3z"/>
</g>
</svg>
