<?xml version="1.0" encoding="utf-8"?>
<!-- Generator: Adobe Illustrator 18.0.0, SVG Export Plug-In . SVG Version: 6.00 Build 0)  -->
<!DOCTYPE svg PUBLIC "-//W3C//DTD SVG 1.1//EN" "http://www.w3.org/Graphics/SVG/1.1/DTD/svg11.dtd">
<svg version="1.1" id="Layer_1" xmlns="http://www.w3.org/2000/svg" xmlns:xlink="http://www.w3.org/1999/xlink" x="0px" y="0px"
	 viewBox="0 0 841.9 595.3" enable-background="new 0 0 841.9 595.3" xml:space="preserve">
<path d="M581.7,82.3C538.1,27.8,479.5,0,409.1,0c-70.4,0-132,30.8-175.6,85.3c-43.7,55.6-57.5,119.1-41.7,187.5
	c15.9,67.5,58.5,121,120,150.8l97.2,171.6l100.2-173.6c61.5-30.8,103.2-85.3,118.1-152.8C641.2,200.4,626.4,136.9,581.7,82.3z"/>
<g>
	<g>
		<path fill="#9175B5" d="M408.9,222l-205.1-66.6c29.4-90.6,109.8-149,205.1-149V222z"/>
	</g>
</g>
<g>
	<g>
		<path fill="#66BB6A" d="M408.9,222L282.1,396.4c-77.1-56-107.8-150.4-78.3-241L408.9,222z"/>
	</g>
</g>
<g>
	<g>
		<path fill="#BDDDF4" d="M408.9,222l126.8,174.4c-77.1,56-176.4,56-253.5,0L408.9,222z"/>
	</g>
</g>
<g>
	<g>
		<path fill="#488FCC" d="M408.9,222L614,155.4c29.4,90.6-1.3,185-78.3,241L408.9,222z"/>
	</g>
</g>
<g>
	<g>
		<path fill="#757576" d="M408.9,222V6.4c95.3,0,175.7,58.4,205.1,149L408.9,222z"/>
	</g>
</g>
<g>
	<path d="M527.1,222.2l-16.9-22.8c-5-6-13.9-8.9-20.8-6.9l-36.7,11.9c-6.9,2-9.9,9.9-6,15.9l22.8,38.7h50.6l8.9-14.9
		C532.1,238.1,531.1,228.2,527.1,222.2z M427.9,272.8l-7.9,37.7c-2,6.9,3,13.9,10.9,14.9l34.7,4c7.9,1,16.9-4,19.8-9.9l34.7-59.5
		h-75.4C436.9,259.9,428.9,265.9,427.9,272.8z"/>
	<path d="M347.6,126l-10.9,25.8c-3,6.9-1,16.9,5,21.8l28.8,25.8c6,5,12.9,4,16.9-3l22.8-38.7l-25.8-43.7h-16.9
		C359.5,114.1,350.5,120,347.6,126z M485.5,158.7L471.6,127c-3-6.9-11.9-12.9-18.9-12.9h-68.5l37.7,65.5c4,6.9,12.9,9.9,19.8,7.9
		l36.7-11.9C485.5,172.6,488.4,165.7,485.5,158.7z"/>
	<path d="M397.2,259.9h-44.6l-25.8,43.7l8.9,14.9c4,6.9,12.9,10.9,19.8,9.9l27.8-3c6.9-1,14.9-7.9,15.9-14.9l7.9-37.7
		C409.1,265.9,404.1,259.9,397.2,259.9z M361.5,218.3l-28.8-25.8c-6-5-13.9-4-17.9,2L294,222.2c-4,6-5,15.9-1,22.8l33.7,59.5
		l37.7-65.5C368.4,232.2,366.4,223.2,361.5,218.3z"/>
</g>
</svg>
