<?xml version="1.0" encoding="utf-8"?>
<!-- Generator: Adobe Illustrator 18.0.0, SVG Export Plug-In . SVG Version: 6.00 Build 0)  -->
<!DOCTYPE svg PUBLIC "-//W3C//DTD SVG 1.1//EN" "http://www.w3.org/Graphics/SVG/1.1/DTD/svg11.dtd">
<svg version="1.1" id="Layer_1" xmlns="http://www.w3.org/2000/svg" xmlns:xlink="http://www.w3.org/1999/xlink" x="0px" y="0px"
	 viewBox="0 0 841.9 595.3" enable-background="new 0 0 841.9 595.3" xml:space="preserve">
<path d="M593.7,82.3C550.1,27.8,491.6,0,421.1,0c-70.4,0-132,30.8-175.6,85.3c-43.7,55.6-57.5,119.1-41.7,187.5
	c15.9,67.5,58.5,121,120,150.8l97.2,171.6l100.2-173.6c61.5-30.8,103.2-85.3,118.1-152.8C653.3,200.4,638.4,136.9,593.7,82.3z"/>
<g>
	<g>
		<path fill="#BDDDF4" d="M421.1,221.2H204.8C204.8,102.2,301.1,5,421.1,5l0,0V221.2z"/>
	</g>
</g>
<g>
	<g>
		<path fill="#66BB6A" d="M421.1,221.2v216.3c-119.1,0-216.3-96.2-216.3-216.3l0,0H421.1z"/>
	</g>
</g>
<g>
	<g>
		<path fill="#757576" d="M421.1,221.2h216.3c0,119.1-96.2,216.3-216.3,216.3l0,0V221.2z"/>
	</g>
</g>
<g>
	<g>
		<path fill="#488FCC" d="M421.1,221.2V6c119.1,0,216.3,96.2,216.3,216.3l0,0L421.1,221.2L421.1,221.2z"/>
	</g>
</g>
<g>
	<path d="M539.2,222.2l-16.9-22.8c-5-6-13.9-8.9-20.8-6.9l-36.7,11.9c-6.9,2-9.9,9.9-6,15.9l22.8,38.7h50.6l8.9-14.9
		C544.1,238.1,543.1,228.2,539.2,222.2z M440,272.8l-7.9,37.7c-2,6.9,3,13.9,10.9,14.9l34.7,4c7.9,1,16.9-4,19.8-9.9l34.7-59.5
		h-75.4C448.9,259.9,441,265.9,440,272.8z"/>
	<path d="M359.6,126l-10.9,25.8c-3,6.9-1,16.9,5,21.8l28.8,25.8c6,5,12.9,4,16.9-3l22.8-38.7l-25.8-43.7h-16.9
		C371.5,114.1,362.6,120,359.6,126z M497.5,158.7L483.6,127c-3-6.9-11.9-12.9-18.9-12.9h-68.5l37.7,65.5c4,6.9,12.9,9.9,19.8,7.9
		l36.7-11.9C497.5,172.6,500.5,165.7,497.5,158.7z"/>
	<path d="M409.2,259.9h-44.6l-25.8,43.7l8.9,14.9c4,6.9,12.9,10.9,19.8,9.9l27.8-3c6.9-1,14.9-7.9,15.9-14.9l7.9-37.7
		C421.1,265.9,416.2,259.9,409.2,259.9z M373.5,218.3l-28.8-25.8c-6-5-13.9-4-17.9,2L306,222.2c-4,6-5,15.9-1,22.8l33.7,59.5
		l37.7-65.5C380.4,232.2,378.5,223.2,373.5,218.3z"/>
</g>
</svg>
