<?xml version="1.0" encoding="utf-8"?>
<!-- Generator: Adobe Illustrator 18.0.0, SVG Export Plug-In . SVG Version: 6.00 Build 0)  -->
<!DOCTYPE svg PUBLIC "-//W3C//DTD SVG 1.1//EN" "http://www.w3.org/Graphics/SVG/1.1/DTD/svg11.dtd">
<svg version="1.1" id="Layer_1" xmlns="http://www.w3.org/2000/svg" xmlns:xlink="http://www.w3.org/1999/xlink" x="0px" y="0px"
	 viewBox="197.3 267.6 45 60" enable-background="new 197.3 267.6 45 60" xml:space="preserve">
<path d="M237.3,275.9c-4.4-5.5-10.3-8.3-17.4-8.3c-7.1,0-13.3,3.1-17.7,8.6c-4.4,5.6-5.8,12-4.2,18.9c1.6,6.8,5.9,12.2,12.1,15.2
	l9.8,17.3l10.1-17.5c6.2-3.1,10.4-8.6,11.9-15.4C243.3,287.8,241.8,281.4,237.3,275.9z"/>
<g>
	<g>
		<g>
			<path fill="#BDAAA4" d="M219.9,289.9l-17.1-13.3c4.2-5.4,10.3-8.3,17.1-8.3V289.9z"/>
		</g>
	</g>
	<g>
		<g>
			<path fill="#9175B5" d="M219.9,289.9l-21.2,4.9c-1.5-6.7-0.2-12.9,4-18.3L219.9,289.9z"/>
		</g>
	</g>
	<g>
		<g>
			<path fill="#757576" d="M219.9,289.9l-9.2,19.7c-6.2-2.9-10.4-8.1-12-14.8L219.9,289.9z"/>
		</g>
	</g>
	<g>
		<g>
			<path fill="#488FCC" d="M219.9,289.9l9.5,19.6c-6.2,3-12.5,3.1-18.7,0.2L219.9,289.9z"/>
		</g>
	</g>
	<g>
		<g>
			<path fill="#BDDDF4" d="M219.9,289.9l21.2,4.5c-1.4,6.7-5.6,12-11.7,15L219.9,289.9z"/>
		</g>
	</g>
	<g>
		<g>
			<path fill="#66BB6A" d="M219.9,289.9l16.9-13.6c4.3,5.3,5.8,11.5,4.4,18.2L219.9,289.9z"/>
		</g>
	</g>
	<g>
		<g>
			<path fill="#2D3079" d="M219.9,289.9v-21.7c6.9,0,12.6,2.7,16.9,8.1L219.9,289.9z"/>
		</g>
	</g>
</g>
<g>
	<path d="M231.8,290l-1.7-2.3c-0.5-0.6-1.4-0.9-2.1-0.7l-3.7,1.2c-0.7,0.2-1,1-0.6,1.6l2.3,3.9h5.1l0.9-1.5
		C232.3,291.6,232.2,290.6,231.8,290z M221.8,295.1l-0.8,3.8c-0.2,0.7,0.3,1.4,1.1,1.5l3.5,0.4c0.8,0.1,1.7-0.4,2-1l3.5-6h-7.6
		C222.7,293.8,221.9,294.4,221.8,295.1z"/>
	<path d="M213.7,280.3l-1.1,2.6c-0.3,0.7-0.1,1.7,0.5,2.2l2.9,2.6c0.6,0.5,1.3,0.4,1.7-0.3l2.3-3.9l-2.6-4.4h-1.7
		C214.9,279.1,214,279.7,213.7,280.3z M227.6,283.6l-1.4-3.2c-0.3-0.7-1.2-1.3-1.9-1.3h-6.9l3.8,6.6c0.4,0.7,1.3,1,2,0.8l3.7-1.2
		C227.6,285,227.9,284.3,227.6,283.6z"/>
	<path d="M218.7,293.8h-4.5l-2.6,4.4l0.9,1.5c0.4,0.7,1.3,1.1,2,1l2.8-0.3c0.7-0.1,1.5-0.8,1.6-1.5l0.8-3.8
		C219.9,294.4,219.4,293.8,218.7,293.8z M215.1,289.6l-2.9-2.6c-0.6-0.5-1.4-0.4-1.8,0.2l-2.1,2.8c-0.4,0.6-0.5,1.6-0.1,2.3l3.4,6
		l3.8-6.6C215.8,291,215.6,290.1,215.1,289.6z"/>
</g>
</svg>
