<?xml version="1.0" encoding="utf-8"?>
<!-- Generator: Adobe Illustrator 18.0.0, SVG Export Plug-In . SVG Version: 6.00 Build 0)  -->
<!DOCTYPE svg PUBLIC "-//W3C//DTD SVG 1.1//EN" "http://www.w3.org/Graphics/SVG/1.1/DTD/svg11.dtd">
<svg version="1.1" id="Layer_1" xmlns="http://www.w3.org/2000/svg" xmlns:xlink="http://www.w3.org/1999/xlink" x="0px" y="0px"
	 viewBox="243 246.3 996 710" enable-background="new 243 246.3 996 710" xml:space="preserve">
<path d="M988.5,349.9c-43.7-54.6-102.2-82.3-172.6-82.3s-132,30.8-175.6,85.3c-43.7,55.6-57.5,119.1-41.7,187.5
	c15.9,67.5,58.5,121,120,150.8l97.2,171.6L916,689.2c61.5-30.8,103.2-85.3,118.1-152.8C1048,468,1033.1,404.5,988.5,349.9z"/>
<path fill="#BCAAA4" d="M1032.1,489.9c0-119.8-96.7-215.7-215.3-216.3l0-0.1c-39.6,0-73.4,9-108.1,28.8
	C605.5,361.9,569.8,493.8,629.3,597c19.9,34.8,44.7,59.6,79.4,79.4c102.9,59.3,234.5,24,294.2-78.6l0.4,0.2
	C1023.2,563.3,1032.1,529.6,1032.1,489.9z"/>
<g>
	<path d="M933.9,489.8L917,467c-5-6-13.9-8.9-20.8-6.9L859.5,472c-6.9,2-9.9,9.9-6,15.9l22.8,38.7h50.6l8.9-14.9
		C938.9,505.7,937.9,495.8,933.9,489.8z M834.7,540.4l-7.9,37.7c-2,6.9,3,13.9,10.9,14.9l34.7,4c7.9,1,16.9-4,19.8-9.9l34.7-59.5
		h-75.4C843.6,527.5,835.7,533.5,834.7,540.4z"/>
	<path d="M754.3,393.6l-10.9,25.8c-3,6.9-1,16.9,5,21.8l28.8,25.8c6,5,12.9,4,16.9-3l22.8-38.7l-25.8-43.7h-16.9
		C766.2,381.7,757.3,387.6,754.3,393.6z M892.2,426.3l-13.9-31.7c-3-6.9-11.9-12.9-18.9-12.9h-68.5l37.7,65.5
		c4,6.9,12.9,9.9,19.8,7.9l36.7-11.9C892.2,440.2,895.2,433.3,892.2,426.3z"/>
	<path d="M803.9,527.5h-44.6l-25.8,43.7l8.9,14.9c4,6.9,12.9,10.9,19.8,9.9l27.8-3c6.9-1,14.9-7.9,15.9-14.9l7.9-37.7
		C815.8,533.5,810.9,527.5,803.9,527.5z M768.2,485.9l-28.7-25.8c-6-5-13.9-4-17.9,2l-20.8,27.8c-4,6-5,15.9-1,22.8l33.7,59.5
		l37.7-65.5C775.2,499.8,773.2,490.8,768.2,485.9z"/>
</g>
</svg>
