<?xml version="1.0" encoding="utf-8"?>
<!-- Generator: Adobe Illustrator 18.0.0, SVG Export Plug-In . SVG Version: 6.00 Build 0)  -->
<!DOCTYPE svg PUBLIC "-//W3C//DTD SVG 1.1//EN" "http://www.w3.org/Graphics/SVG/1.1/DTD/svg11.dtd">
<svg version="1.1" id="Layer_1" xmlns="http://www.w3.org/2000/svg" xmlns:xlink="http://www.w3.org/1999/xlink" x="0px" y="0px"
	 viewBox="0 0 841.9 595.3" enable-background="new 0 0 841.9 595.3" xml:space="preserve">
<path d="M601,82.3C557.3,27.7,498.8,0.1,428.4,0.1s-132,30.8-175.6,85.3c-43.7,55.6-57.5,119.1-41.7,187.5
	c15.9,67.5,58.5,121,120,150.8l97.2,171.6l100.2-173.6c61.5-30.8,103.2-85.3,118.1-152.8C660.5,200.4,645.6,136.9,601,82.3z"/>
<g>
	<g>
		<path fill="#2D3079" d="M428.2,221.8v215.8c-119.2,0-215.8-96.6-215.8-215.8S309.1,6,428.2,6l0,0V221.8z"/>
	</g>
</g>
<g>
	<g>
		<path fill="#BDAAA4" d="M428.2,221.8V6C547.4,6,644,102.7,644,221.8s-96.6,215.8-215.8,215.8l0,0V221.8z"/>
	</g>
</g>
<g>
	<path d="M546.4,222.2l-16.9-22.8c-5-6-13.9-8.9-20.8-6.9L472,204.4c-6.9,2-9.9,9.9-6,15.9l22.8,38.7h50.6l8.9-14.9
		C551.4,238.1,550.4,228.2,546.4,222.2z M447.2,272.8l-7.9,37.7c-2,6.9,3,13.9,10.9,14.9l34.7,4c7.9,1,16.9-4,19.8-9.9l34.7-59.5
		H464C456.1,259.9,448.2,265.9,447.2,272.8z"/>
	<path d="M366.8,126l-10.9,25.8c-3,6.9-1,16.9,5,21.8l28.8,25.8c6,5,12.9,4,16.9-3l22.8-38.7L403.6,114h-16.9
		C378.7,114.1,369.8,120,366.8,126z M504.7,158.7L490.8,127c-3-6.9-11.9-12.9-18.9-12.9h-68.5l37.7,65.5c4,6.9,12.9,9.9,19.8,7.9
		l36.7-11.9C504.7,172.6,507.7,165.7,504.7,158.7z"/>
	<path d="M416.4,259.9h-44.6L346,303.6l8.9,14.9c4,6.9,12.9,10.9,19.8,9.9l27.8-3c6.9-1,14.9-7.9,15.9-14.9l7.9-37.7
		C428.3,265.9,423.4,259.9,416.4,259.9z M380.7,218.3L352,192.5c-6-5-13.9-4-17.9,2l-20.8,27.8c-4,6-5,15.9-1,22.8l33.7,59.5
		l37.7-65.5C387.7,232.2,385.7,223.2,380.7,218.3z"/>
</g>
</svg>
