<?xml version="1.0" encoding="utf-8"?>
<!-- Generator: Adobe Illustrator 18.0.0, SVG Export Plug-In . SVG Version: 6.00 Build 0)  -->
<!DOCTYPE svg PUBLIC "-//W3C//DTD SVG 1.1//EN" "http://www.w3.org/Graphics/SVG/1.1/DTD/svg11.dtd">
<svg version="1.1" id="Layer_1" xmlns="http://www.w3.org/2000/svg" xmlns:xlink="http://www.w3.org/1999/xlink" x="0px" y="0px"
	 viewBox="197.3 267.6 45 60" enable-background="new 197.3 267.6 45 60" xml:space="preserve">
<path d="M237.3,275.9c-4.4-5.5-10.3-8.3-17.4-8.3c-7.1,0-13.3,3.1-17.7,8.6c-4.4,5.6-5.8,12-4.2,18.9c1.6,6.8,5.9,12.2,12.1,15.2
	l9.8,17.3l10.1-17.5c6.2-3.1,10.4-8.6,11.9-15.4C243.3,287.8,241.8,281.4,237.3,275.9z"/>
<circle fill="#BFCA33" cx="219.9" cy="290" r="21.8"/>
<g>
	<path d="M227.3,278c-0.8-0.4-2-0.3-2.7,0.2c-0.8,0.6-1.2,1.6-1,2.5c0.2,0.8,0.9,1.5,1.7,1.8c0.9,0.3,2.1,0.1,2.8-0.6
		c0.7-0.6,0.9-1.6,0.6-2.5C228.4,278.8,227.9,278.3,227.3,278z"/>
	<path d="M204.1,294.9c0.6,2.2,2.8,4,5.1,4.2c2,0.2,3.8-0.5,5.2-1.9l7.4-6.2c1.1-1,2.3-2,3.4-2.9h-6.9c-0.8-0.1-1.6-0.8-1.8-1.5
		c-0.3-0.8,0-1.8,0.6-2.4c0.5-0.4,1.1-0.6,1.8-0.6h2.9l4.4,4.4c-2.2,1.5-3.1,4-2.5,6.5c0.5,2.2,2.6,4.2,4.9,4.5
		c2.4,0.5,5-0.6,6.4-2.8c1.3-2.1,1.2-4.7-0.1-6.7c-0.5-0.9-1.4-1.5-2.3-2c-1.1-0.5-2.4-0.8-3.7-0.6l-0.5-0.4l-5.5-5.4h-0.6h-3.8
		c-1.9,0-3.7,1.3-4.4,3.1c-0.6,1.7-0.2,3.8,1.1,5c0.9,0.8,1.9,1.3,3.2,1.3l0,0.2l-2.3,1.9l0,0c-0.1-2.2-1.8-4.5-3.9-5.2
		c-2.1-0.8-4.7-0.4-6.4,1.3C204,290.2,203.5,292.6,204.1,294.9z M227.6,290.2c1-0.8,2.5-1,3.7-0.4c1.2,0.5,2,1.6,2.1,2.9
		c0.2,1.5-0.6,2.9-1.9,3.6c-1.1,0.6-2.7,0.6-3.8-0.1c-1.1-0.7-1.7-2-1.6-3.2C226.2,291.8,226.7,290.8,227.6,290.2z M207.6,290.3
		c1-0.9,2.7-1.2,3.9-0.6c0.8,0.3,1.5,1.1,1.8,1.9c0.5,1.1,0.3,2.7-0.5,3.6c-0.9,1.2-2.5,1.6-3.9,1.2c-1.1-0.4-2.1-1.4-2.4-2.5
		C206.1,292.6,206.6,291.2,207.6,290.3z"/>
</g>
</svg>
