<?xml version="1.0" encoding="utf-8"?>
<!-- Generator: Adobe Illustrator 18.0.0, SVG Export Plug-In . SVG Version: 6.00 Build 0)  -->
<!DOCTYPE svg PUBLIC "-//W3C//DTD SVG 1.1//EN" "http://www.w3.org/Graphics/SVG/1.1/DTD/svg11.dtd">
<svg version="1.1" id="Layer_1" xmlns="http://www.w3.org/2000/svg" xmlns:xlink="http://www.w3.org/1999/xlink" x="0px" y="0px"
	 viewBox="0 0 45 60" enable-background="new 0 0 45 60" xml:space="preserve">
<path fill="#010101" d="M39.9,8.3C35.5,2.8,29.6,0,22.5,0S9.2,3.1,4.8,8.6c-4.4,5.6-5.8,12-4.2,18.9c1.6,6.8,5.9,12.2,12.1,15.2
	L22.5,60l10.1-17.5c6.2-3.1,10.4-8.6,11.9-15.4C45.9,20.2,44.4,13.8,39.9,8.3z"/>
<circle fill="#F8981D" cx="22.5" cy="22.4" r="21.8"/>
<path id="path2360_2_" fill="#010101" d="M22,17.4c0,0.9-0.8,1.9-1.9,1.9v15.7c0,2.2-3,2.2-3,0V19.3c-1.1,0-2-0.8-2-2.1V8.6
	c0-0.8,1.1-0.8,1.1,0v6.4H17V8.6c0-0.7,1-0.7,1,0v6.4H19V8.6c0-0.7,1-0.8,1,0v6.4h0.9V8.6c0-0.7,1.1-0.7,1.1,0L22,17.4z"/>
<path id="path2362_2_" fill="#010101" d="M30.1,10.6v24.4c0,2.2-3,2.2-3,0v-9.7h-1.6V10.6C25.4,7.2,30.1,7.2,30.1,10.6z"/>
</svg>
