<?xml version="1.0" encoding="utf-8"?>
<!-- Generator: Adobe Illustrator 18.0.0, SVG Export Plug-In . SVG Version: 6.00 Build 0)  -->
<!DOCTYPE svg PUBLIC "-//W3C//DTD SVG 1.1//EN" "http://www.w3.org/Graphics/SVG/1.1/DTD/svg11.dtd">
<svg version="1.1" id="Layer_1" xmlns="http://www.w3.org/2000/svg" xmlns:xlink="http://www.w3.org/1999/xlink" x="0px" y="0px"
	 viewBox="197.3 267.6 45 60" enable-background="new 197.3 267.6 45 60" xml:space="preserve">
<path d="M237.3,275.9c-4.4-5.5-10.3-8.3-17.4-8.3c-7.1,0-13.3,3.1-17.7,8.6c-4.4,5.6-5.8,12-4.2,18.9c1.6,6.8,5.9,12.2,12.1,15.2
	l9.8,17.3l10.1-17.5c6.2-3.1,10.4-8.6,11.9-15.4C243.3,287.8,241.8,281.4,237.3,275.9z"/>
<circle fill="#EF4438" cx="219.9" cy="290" r="21.8"/>
<path d="M223,272.2c-0.8-0.6-1.8-0.9-2.9-0.9c-0.6,0-1.1,0.1-1.6,0.2c-0.5,0.2-0.9,0.4-1.3,0.7c-0.4,0.3-0.7,0.7-0.9,1.1
	c-0.2,0.4-0.3,0.9-0.3,1.4c0,0.4,0.1,1.1,0.2,2l3.2,20.1h1.4l3.3-20.1c0-0.4,0.1-0.7,0.1-1c0-0.3,0-0.5,0-0.7
	C224.2,273.8,223.8,272.8,223,272.2z"/>
<path d="M222.6,299.8c-0.3-0.3-0.7-0.6-1.2-0.8c-0.4-0.2-0.9-0.3-1.4-0.3s-1,0.1-1.4,0.3c-0.4,0.2-0.8,0.4-1.1,0.8
	c-0.3,0.4-0.6,0.7-0.8,1.1c-0.2,0.4-0.3,0.9-0.3,1.4s0.1,1,0.3,1.4c0.2,0.4,0.5,0.8,0.8,1.1c0.3,0.3,0.7,0.6,1.1,0.8
	c0.4,0.2,0.9,0.3,1.4,0.3s1-0.1,1.4-0.3c0.4-0.2,0.8-0.5,1.1-0.8c0.3-0.3,0.6-0.7,0.8-1.1s0.3-0.9,0.3-1.4s-0.1-0.9-0.3-1.4
	C223.2,300.5,222.9,300.1,222.6,299.8z"/>
</svg>
