<?xml version="1.0" encoding="utf-8"?>
<!-- Generator: Adobe Illustrator 18.0.0, SVG Export Plug-In . SVG Version: 6.00 Build 0)  -->
<!DOCTYPE svg PUBLIC "-//W3C//DTD SVG 1.1//EN" "http://www.w3.org/Graphics/SVG/1.1/DTD/svg11.dtd">
<svg version="1.1" id="Layer_1" xmlns="http://www.w3.org/2000/svg" xmlns:xlink="http://www.w3.org/1999/xlink" x="0px" y="0px"
	 viewBox="0 0 841.9 595.3" enable-background="new 0 0 841.9 595.3" xml:space="preserve">
<path d="M791.9,349.9c-43.7-54.6-102.2-82.3-172.6-82.3s-132,30.8-175.6,85.3C400,408.5,386.1,472,402,540.4
	c15.9,67.5,58.5,121,120,150.8l97.2,171.6l100.2-173.6c61.5-30.8,103.2-85.3,118.1-152.8C851.4,468,836.5,404.5,791.9,349.9z"/>
<circle fill="#F4511E" cx="619.2" cy="489.8" r="216.3"/>
<path d="M644.8,342.6c-6.5-4.9-14.7-7.3-23.6-7.3c-4.9,0-8.9,0.8-13,1.6c-4.1,1.6-7.3,3.3-10.6,5.7c-3.3,2.5-5.7,5.7-7.3,8.9
	s-2.5,7.3-2.5,11.4c0,3.3,0.8,8.9,1.6,16.2l26,163.3h11.4l26.8-163.3c0-3.3,0.8-5.7,0.8-8.1s0-4.1,0-5.7
	C654.5,355.6,651.2,347.5,644.8,342.6z"/>
<path d="M641.5,567c-2.5-2.5-5.7-4.9-9.7-6.5c-3.3-1.6-7.3-2.5-11.4-2.5c-4.1,0-8.1,0.8-11.4,2.5c-3.3,1.6-6.5,3.3-8.9,6.5
	c-2.5,3.3-4.9,5.7-6.5,8.9c-1.6,3.3-2.5,7.3-2.5,11.4c0,4.1,0.8,8.1,2.5,11.4c1.6,3.3,4.1,6.5,6.5,8.9c2.5,2.5,5.7,4.9,8.9,6.5
	c3.3,1.6,7.3,2.5,11.4,2.5c4.1,0,8.1-0.8,11.4-2.5c3.3-1.6,6.5-4.1,8.9-6.5c2.5-2.5,4.9-5.7,6.5-8.9c1.6-3.3,2.5-7.3,2.5-11.4
	c0-4.1-0.8-7.3-2.5-11.4C646.4,572.6,644,569.4,641.5,567z"/>
</svg>
