<?xml version="1.0" encoding="utf-8"?>
<!-- Generator: Adobe Illustrator 18.0.0, SVG Export Plug-In . SVG Version: 6.00 Build 0)  -->
<!DOCTYPE svg PUBLIC "-//W3C//DTD SVG 1.1//EN" "http://www.w3.org/Graphics/SVG/1.1/DTD/svg11.dtd">
<svg version="1.1" id="Layer_1" xmlns="http://www.w3.org/2000/svg" xmlns:xlink="http://www.w3.org/1999/xlink" x="0px" y="0px"
	 viewBox="197.3 267.6 45 60" enable-background="new 197.3 267.6 45 60" xml:space="preserve">
<path d="M237.2,276c-4.4-5.5-10.3-8.3-17.4-8.3c-7.1,0-13.3,3.1-17.7,8.6c-4.4,5.6-5.8,12-4.2,18.9c1.6,6.8,5.9,12.2,12.1,15.2
	l9.8,17.3l10.1-17.5c6.2-3.1,10.4-8.6,11.9-15.4C243.2,287.8,241.7,281.5,237.2,276z"/>
<circle fill="#795649" cx="219.8" cy="290" r="21.8"/>
<g>
	
		<ellipse transform="matrix(-0.4419 -0.8971 0.8971 -0.4419 44.1752 605.8216)" fill="#010101" cx="210.5" cy="289.2" rx="4.8" ry="3.2"/>
	
		<ellipse transform="matrix(0.2284 -0.9736 0.9736 0.2284 -101.9951 436.6033)" fill="#010101" cx="224.4" cy="282.6" rx="5.4" ry="3.6"/>
	
		<ellipse transform="matrix(-0.2474 -0.9689 0.9689 -0.2474 -3.7263 561.8154)" fill="#010101" cx="216.3" cy="282.4" rx="5.5" ry="3.4"/>
	
		<ellipse transform="matrix(0.2355 -0.9719 0.9719 0.2355 -107.43 445.1367)" fill="#010101" cx="229.2" cy="290.9" rx="4.6" ry="3.4"/>
	<path fill="#010101" d="M211.4,298c0,0,3.4-7.7,8.3-7.7c0,0,6.4-0.2,8.2,9.7c0.3,1.5-0.7,2.8-2.2,2.9c-1.8,0.1-3.5-0.9-5.2-1
		c-2.5-0.2-7.5,2.6-9.1-0.6C210.8,300.5,210.9,298.9,211.4,298z"/>
</g>
</svg>
