<?xml version="1.0" encoding="utf-8"?>
<!-- Generator: Adobe Illustrator 18.0.0, SVG Export Plug-In . SVG Version: 6.00 Build 0)  -->
<!DOCTYPE svg PUBLIC "-//W3C//DTD SVG 1.1//EN" "http://www.w3.org/Graphics/SVG/1.1/DTD/svg11.dtd">
<svg version="1.1" id="Layer_1" xmlns="http://www.w3.org/2000/svg" xmlns:xlink="http://www.w3.org/1999/xlink" x="0px" y="0px"
	 viewBox="197.3 267.6 45 60" enable-background="new 197.3 267.6 45 60" xml:space="preserve">
<path d="M237.3,275.9c-4.4-5.5-10.3-8.3-17.4-8.3c-7.1,0-13.3,3.1-17.7,8.6c-4.4,5.6-5.8,12-4.2,18.9c1.6,6.8,5.9,12.2,12.1,15.2
	l9.8,17.3l10.1-17.5c6.2-3.1,10.4-8.6,11.9-15.4C243.3,287.8,241.8,281.4,237.3,275.9z"/>
<circle fill="#FDD836" cx="219.9" cy="290" r="21.8"/>
<g>
	<circle cx="212.4" cy="300.5" r="2.1"/>
	<circle cx="226.2" cy="299.9" r="2.7"/>
	<g>
		<g>
			<path d="M233.8,279.3c-0.2-0.4-0.7-0.4-0.7-0.4l-3.6,0.6c0,0,0-0.6-0.5-0.6s-0.6,0.6-0.6,0.9l-21.7,2.8l2,11h18.7l-0.2,2h-18.4
				c0,0-0.6,0.1-0.6,0.6s0.5,0.6,0.7,0.6h18.8c0,0,0.5,0.1,0.6-0.6l1.1-15.4l4-0.9C233.4,280,234,279.7,233.8,279.3z M208,283.6
				l2.9-0.4l0.3,4h-2.6L208,283.6z M209.6,292.5l-0.8-4.2h2.5l0.3,4.2H209.6L209.6,292.5z M212,283l4.2-0.6l0.3,4.8h-4.2L212,283z
				 M212.8,292.5l-0.4-4.2h4.2l0.3,4.2H212.8L212.8,292.5z M217.4,282.3l5.8-0.8l0.2,5.7h-5.7L217.4,282.3z M218,292.5l-0.3-4.2h5.7
				l0.1,4.2H218L218,292.5z M227.4,292.5h-2.8l-0.1-4.2h3.3L227.4,292.5z M227.8,287.2h-3.4l-0.2-5.8l4-0.5L227.8,287.2z"/>
		</g>
	</g>
</g>
</svg>
